<?xml version="1.0" encoding="UTF-8" standalone="no"?>
<svg
   xmlns:dc="http://purl.org/dc/elements/1.1/"
   xmlns:cc="http://creativecommons.org/ns#"
   xmlns:rdf="http://www.w3.org/1999/02/22-rdf-syntax-ns#"
   xmlns:svg="http://www.w3.org/2000/svg"
   xmlns="http://www.w3.org/2000/svg"
   xmlns:sodipodi="http://sodipodi.sourceforge.net/DTD/sodipodi-0.dtd"
   xmlns:inkscape="http://www.inkscape.org/namespaces/inkscape"
   sodipodi:docname="F1 2020.svg"
   inkscape:version="1.0 (4035a4fb49, 2020-05-01)"
   id="svg8"
   version="1.1"
   viewBox="0 0 852.3302 529.7345"
   height="529.7345mm"
   width="852.3302mm">
  <defs
     id="defs2" />
  <sodipodi:namedview
     inkscape:window-maximized="1"
     inkscape:window-y="-11"
     inkscape:window-x="-11"
     inkscape:window-height="986"
     inkscape:window-width="1920"
     fit-margin-bottom="0"
     fit-margin-right="0"
     fit-margin-left="0"
     fit-margin-top="0"
     showgrid="false"
     inkscape:document-rotation="0"
     inkscape:current-layer="layer1"
     inkscape:document-units="mm"
     inkscape:cy="7.3444989"
     inkscape:cx="4297.6371"
     inkscape:zoom="0.083949881"
     inkscape:pageshadow="2"
     inkscape:pageopacity="0.0"
     borderopacity="1.0"
     bordercolor="#666666"
     pagecolor="#ffffff"
     id="base" />
  <metadata
     id="metadata5">
    <rdf:RDF>
      <cc:Work
         rdf:about="">
        <dc:format>image/svg+xml</dc:format>
        <dc:type
           rdf:resource="http://purl.org/dc/dcmitype/StillImage" />
        <dc:title></dc:title>
      </cc:Work>
    </rdf:RDF>
  </metadata>
  <g
     transform="translate(165.7784,56.512733)"
     id="layer1"
     inkscape:groupmode="layer"
     inkscape:label="Calque 1">
    <path
       d="m -70.017666,235.9772 v 11.82977 11.82977 l 67.3715964,0.0625 67.3710816,0.062 2.043284,0.48059 c 7.009562,1.65006 12.540594,4.5629 17.306438,9.11315 5.616906,5.36276 9.167299,11.94208 10.600904,19.64532 0.498666,2.67956 0.498666,9.36463 0,12.0442 -1.433605,7.70324 -4.983998,14.28255 -10.600904,19.64531 -4.766897,4.55126 -10.310468,7.46969 -17.306438,9.11109 l -2.043284,0.47955 -43.821098,0.0651 -43.820581,0.0651 v 11.8246 11.82407 h 59.654239 59.654757 l 0.263549,1.34411 c 0.396012,2.01779 1.631958,5.98273 2.731617,8.76432 1.387855,3.5106 3.311135,7.16198 5.577955,10.58953 l 1.9575,2.96005 H 30.160713 -46.601009 l 0.08682,-19.62518 c 0.08358,-18.83711 0.105322,-19.72029 0.538466,-21.99399 1.404612,-7.37317 4.675841,-13.57815 9.926527,-18.82883 6.112848,-6.11286 13.375772,-9.50688 22.058084,-10.30738 1.502468,-0.1385 17.5324535,-0.21796 43.928067,-0.21806 H 71.499792 V 295.02217 283.30092 H 0.74132046 -70.017666 v 11.72125 11.72179 h 5.806879 c 3.19382,0 5.806882,0.0357 5.806882,0.0796 0,0.0439 -0.814567,1.30037 -1.810742,2.79209 -4.054552,6.07142 -7.071053,13.26105 -8.588624,20.47161 -1.21798,5.78683 -1.213665,5.64795 -1.213879,39.83376 v 0 l -5.29e-4,31.4539 H 18.482873 106.9829 l 0.0558,-11.73522 0.0553,-11.7352 1.64899,2.00404 c 1.89938,2.30851 5.98657,6.35224 8.39174,8.30233 3.79596,3.07769 8.95626,6.20546 13.44052,8.14678 6.55343,2.83708 12.84093,4.33205 20.17862,4.79764 4.52215,0.28694 72.9616,0.29099 77.66916,0.005 12.10541,-0.73636 23.39528,-4.99541 32.98506,-12.44369 2.40877,-1.8709 7.02808,-6.38969 9.03976,-8.84338 l 1.60663,-1.95959 0.13229,3.3967 c 0.0727,1.86825 0.14531,7.14734 0.16121,11.73107 l 0.029,8.33387 129.95746,-0.004 c 85.35593,-0.003 131.06418,-0.0782 133.18307,-0.22116 15.1334,-1.02095 28.32076,-7.1315 38.83948,-17.99685 8.75303,-9.04148 14.09573,-20.05309 16.04709,-33.07342 0.35758,-2.38631 0.38706,-4.76187 0.38706,-31.50817 v -28.92743 l -0.48784,-3.05871 c -1.06336,-6.66642 -2.79276,-12.13382 -5.65907,-17.89245 -8.11101,-16.29576 -23.31,-27.95868 -41.06159,-31.50817 -5.54714,-1.10918 -3.71612,-1.0624 -45.27269,-1.1467 -43.50062,-0.0883 -43.47665,-0.0889 -50.11166,1.36168 -6.02888,1.31809 -13.17646,4.2342 -18.22577,7.43572 -15.38026,9.75199 -24.95817,24.71646 -27.50891,42.98084 -0.43056,3.08287 -0.3678,11.71199 0.10853,14.94739 1.39874,9.50101 5.00094,18.56426 10.32134,25.97 l 1.19732,1.66658 h -11.91916 -11.91916 l -0.0734,-26.07749 c -0.0664,-23.52053 -0.10983,-26.28842 -0.44492,-28.22824 -1.79996,-10.41971 -6.22581,-19.11445 -13.3599,-26.24854 -7.77457,-7.77454 -17.91814,-12.57445 -28.81323,-13.63379 -1.55377,-0.15102 -14.71795,-0.22841 -38.87256,-0.22841 h -36.52284 l -0.0558,11.74864 -0.0553,11.74915 -0.5483,-0.77049 c -1.18107,-1.66012 -4.5076,-5.26222 -6.63731,-7.18716 -9.89958,-8.94755 -21.72657,-14.14402 -34.86093,-15.31741 -3.37248,-0.3008 -77.4877,-0.30125 -80.86741,0 -15.71057,1.40034 -30.41858,9.0852 -40.3257,21.07003 -0.92895,1.12375 -1.76164,2.04328 -1.85054,2.04329 -0.089,0 -0.9309,-0.91954 -1.87068,-2.04329 -2.30755,-2.75925 -6.765587,-7.05088 -9.449557,-9.0966 -8.043526,-6.13023 -16.746476,-9.82638 -27.315178,-11.60088 l -2.743501,-0.46095 -67.8015457,-0.0703 z m 235.931846,23.69003 c 5.9665,-0.006 13.94125,0.011 24.73544,0.0295 l 39.25084,0.0672 2.15077,0.4904 c 14.32336,3.26614 24.54077,13.52075 27.67738,27.77817 l 0.49661,2.25824 v 28.38948 28.3895 l -0.48783,2.2045 c -2.42344,10.94791 -9.20485,19.78137 -18.86861,24.57887 -4.34564,2.15733 -7.59964,3.12483 -12.25868,3.64474 -2.40065,0.26792 -76.05133,0.24749 -78.39418,-0.0217 -8.20844,-0.94317 -15.88418,-4.75711 -21.5868,-10.72595 -4.66798,-4.88595 -7.71018,-10.6776 -9.21442,-17.54261 -0.46526,-2.1231 -0.46907,-2.32453 -0.54157,-29.55944 -0.0803,-30.16253 -0.10355,-29.50914 1.23248,-34.26714 1.67285,-5.95752 4.80642,-11.17867 9.39167,-15.64764 4.4784,-4.36478 9.30375,-7.18515 15.05645,-8.80049 3.6376,-1.02142 3.46095,-1.24742 21.36045,-1.26555 z m 127.89865,0.0171 c 4.60471,-10e-4 9.89764,0.002 15.82539,0.0124 l 37.2613,0.0625 1.7203,0.46509 c 6.39926,1.72963 11.27929,5.37082 14.6694,10.94508 1.40792,2.31508 2.28213,4.56904 2.84736,7.34269 0.43577,2.13683 0.44183,2.69272 0.44183,38.85758 v 36.68975 h 88.50209 88.50209 v -11.8246 -11.8251 l -43.71308,-0.0641 -43.71361,-0.0636 -2.08103,-0.47903 c -4.79329,-1.10318 -9.05494,-2.89563 -12.65142,-5.32061 -7.82788,-5.27807 -13.02948,-13.02266 -15.0921,-22.47046 -0.43312,-1.98403 -0.49289,-2.84572 -0.48987,-7.09723 0.003,-4.54369 0.0395,-4.99642 0.60719,-7.41971 2.16972,-9.2614 7.2799,-16.74644 14.97478,-21.93354 3.65453,-2.46352 7.97356,-4.26626 12.76152,-5.32682 l 2.1859,-0.48421 h 40.11123 40.11073 l 2.18594,0.48421 c 7.50747,1.66296 13.30367,4.85986 18.47844,10.19214 4.26731,4.39719 7.09491,9.26102 8.69352,14.95414 1.33742,4.7629 1.3135,4.09147 1.23249,34.37464 l -0.0739,27.52908 -0.56378,2.36574 c -1.64121,6.88393 -4.52509,12.29204 -9.11831,17.09973 -3.01826,3.15915 -6.00831,5.32821 -10.08052,7.31221 -4.03698,1.96686 -7.39462,2.94463 -11.76673,3.42564 v -0.003 c -2.44068,0.26852 -263.28544,0.33506 -263.16739,0.0672 0.0394,-0.0895 0.82706,-1.29831 1.74977,-2.68615 3.71483,-5.58753 6.69772,-12.40962 8.13438,-18.60352 l 0.51107,-2.204 h 30.05659 30.05603 v -35.37779 -35.3782 l -30.04828,-0.0548 -30.04781,-0.0543 -0.18809,-0.86043 c -1.13974,-5.21621 -3.44712,-11.31943 -6.00117,-15.87447 -1.19346,-2.12851 -3.76653,-6.10719 -4.07159,-6.29574 -0.10266,-0.0634 -0.18656,-0.20785 -0.18656,-0.32143 0,-0.0985 7.62182,-0.15288 21.4359,-0.15709 z m -151.33908,23.61662 v 35.37924 35.37923 h 47.20797 47.20849 v -35.37923 -35.37924 h -47.20849 z m 306.47741,0 v 11.72125 11.72179 h 47.31597 47.31546 V 295.0222 283.30095 h -47.31546 z m -164.96045,23.44044 17.68985,0.0548 17.68989,0.0553 0.0553,11.77499 0.0558,11.77499 h -17.74516 -17.74568 v -11.82976 z m -70.75849,0 v 11.82979 11.82976 h -23.65953 -23.66006 l 0.0558,-11.77499 0.0553,-11.77499 23.60424,-0.0548 z"
       style="fill:#000000;fill-opacity:1;stroke-width:0.215072"
       id="path58" />
    <g
       transform="matrix(4.4069816e-6,0,0,4.4069816e-6,-69.749046,15.274966)"
       style="clip-rule:evenodd;fill:#ff1e00;fill-opacity:1;fill-rule:evenodd;image-rendering:optimizeQuality;shape-rendering:geometricPrecision;text-rendering:geometricPrecision"
       id="Слой_x0020_1">
      <metadata
         id="CorelCorpID_0Corel-Layer" />
      <g
         style="fill:#ff1e00;fill-opacity:1"
         id="_895705984">
        <polygon
           style="fill:#ff1e00;fill-opacity:1"
           class="fil0"
           points="112313546,37499946 149800076,13342 126517390,13417 89030823,37499984 "
           id="polygon7" />
        <path
           style="fill:#ff1e00;fill-opacity:1"
           class="fil0"
           d="M 0,37499984 28051051,9448933 C 34324312,3175673 41958844,13342 50830568,13342 h 72465382 L 109238450,14070842 H 54512924 c -6452145,0 -12004498,2299918 -16566880,6862224 L 21379126,37499984 Z"
           id="path9" />
        <path
           style="fill:#ff1e00;fill-opacity:1"
           class="fil0"
           d="M 25039939,37499984 40979531,21560392 c 3421796,-3421795 7586079,-5146658 12425160,-5146658 l 53490829,75 -13032419,13032342 H 57204099 c -2984126,0 -5552126,1063710 -7662161,3173782 l -4880051,4880051 z"
           id="path11" />
        <polygon
           style="fill:#ff1e00;fill-opacity:1"
           class="fil1"
           points="121984300,33561111 121984300,32760078 125871507,32760078 125871507,33561111 124427500,33561111 124427500,37499984 123435185,37499984 123435185,33561111 "
           id="polygon13" />
        <polygon
           style="fill:#ff1e00;fill-opacity:1"
           id="1"
           class="fil1"
           points="131222146,32760078 131222146,37499984 130305082,37499984 130301642,33768532 129335595,37499984 128382020,37499984 127420471,33768532 127417031,37499984 126500004,37499984 126500004,32760078 127986190,32760078 128864477,35992860 129732483,32760078 " />
      </g>
    </g>
  </g>
</svg>
